<?xml version="1.0" encoding="UTF-8"?>
<svg id="Layer_1" data-name="Layer 1" xmlns="http://www.w3.org/2000/svg" version="1.1" viewBox="0 0 595.28 841.89">
  <defs>
    <style>
      .cls-1 {
        fill: #5a595c;
      }

      .cls-1, .cls-2, .cls-3, .cls-4, .cls-5 {
        stroke-width: 0px;
      }

      .cls-2 {
        fill: #59595c;
      }

      .cls-3 {
        fill: #59585b;
      }

      .cls-4 {
        fill: #fefcfc;
      }

      .cls-5 {
        fill: #c92f32;
      }
    </style>
  </defs>
  <path class="cls-5" d="M77.21,442.8c-19.51,0-39.02,0-58.52,0-3.38,0-6.38-2.97-6.38-6.38,0-25.15-.07-50.29.05-75.44.03-5.43,3.23-9.46,7.63-12.2,17.14-10.7,34.36-21.27,51.63-31.75,4.03-2.44,8.26-2.43,12.44.27,11.98,7.75,24.03,15.39,36.07,23.05,5.79,3.69,11.61,7.31,17.38,11.01,3.13,2.01,4.57,5.17,4.58,8.66.1,25.37.07,50.73.04,76.1,0,4.43-2.35,6.67-6.73,6.67-19.4,0-38.8,0-58.19,0ZM71.44,410.54c4.74,0,9.48.02,14.22,0,2.53-.02,3.46-1.37,2.69-3.79-.1-.31-.24-.61-.38-.9-2.79-5.59-5.61-11.17-8.38-16.77-.71-1.43-1.87-1.92-3.33-1.96-2.04-.05-4.08-.03-6.11-.12-1.88-.09-2.35-.95-1.44-2.57,2.06-3.68,4.23-7.31,6.2-11.04,1.24-2.36,2.93-2.2,4.16.12,3.29,6.19,6.56,12.39,9.85,18.58,5.58,10.5,11.26,20.95,16.72,31.51,1.58,3.07,3.97,4.64,7.14,4.73,7.1.19,14.21.14,21.31.05,3.26-.04,4.44-2.37,2.8-5.3-6.06-10.81-12.14-21.6-18.23-32.39-9.05-16.04-18.08-32.09-27.19-48.1-.96-1.7-2.52-2.89-4.67-2.89-6.23,0-12.45-.03-18.68.01-2.43.01-4.28.98-5.45,3.28-1.55,3.02-3.32,5.93-4.97,8.89-5.57,9.95-11.13,19.91-16.7,29.86-7.17,12.82-14.34,25.64-21.51,38.46-.64,1.15-1.34,2.27-1.93,3.44-1.44,2.86-.37,4.63,2.75,4.63,6.06,0,12.13-.14,18.18.05,3.39.11,5.79-.52,7.73-3.8,2.7-4.56,6.15-8.67,9.36-12.91.41-.54,1.31-1,1.99-1.01,4.63-.09,9.26-.05,13.88-.04Z"/>
  <path class="cls-3" d="M519.84,347.86c.24-.05.4-.1.55-.1,11.02.01,22.04-.15,33.05.12,6.06.15,11.83,1.81,16.63,5.85,5.63,4.74,7.58,11.09,7.87,18.13.21,5.29-.46,10.41-3.24,15.07-2.14,3.6-5.14,6.25-9.2,7.99.83.46,1.57.83,2.28,1.27,5.29,3.3,7.52,8.41,8.15,14.31.4,3.76.4,7.55.61,11.33.34,6.19.71,12.37,1.07,18.56.03.55.05,1.1.08,1.78h-17.3c-.42-3.47-1.06-6.97-1.23-10.49-.28-5.87-.19-11.76-.43-17.63-.08-1.94-.54-3.93-1.15-5.78-1.09-3.29-3.57-5.39-6.94-5.84-4.28-.57-8.63-.63-13.14-.93v40.67h-17.66v-94.31ZM537.51,361.19v26.84c3.69,0,7.28.21,10.84-.05,5.1-.38,9.46-2.19,11.17-7.62,1.11-3.52,1.22-7.1.26-10.7-1.15-4.28-3.87-7.15-8.24-7.7-4.6-.58-9.28-.54-14.02-.77Z"/>
  <path class="cls-2" d="M174.36,347.81h23.02c7.68,31.43,15.36,62.85,23.08,94.42h-18.62c-1.64-7.9-3.27-15.77-4.92-23.74h-22.67c-.42,1.92-.89,3.93-1.3,5.95-1.16,5.64-2.28,11.28-3.46,16.91-.08.36-.55.91-.85.91-5.72.05-11.44.04-17.15.04,7.63-31.54,15.23-62.94,22.86-94.49ZM185.51,363.57c-2.69,13.4-5.35,26.62-8.02,39.9h16.21c-2.74-13.31-5.45-26.53-8.2-39.9Z"/>
  <path class="cls-2" d="M515.14,442.3c-5.74,0-11.3,0-16.86,0-.54,0-1.09,0-1.68,0-.78-3.74-1.54-7.38-2.29-11.02-.83-3.97-1.62-7.94-2.52-11.9-.09-.4-.74-.97-1.14-.97-7.05-.06-14.1-.04-21.16-.02-.15,0-.31.09-.54.17-1.63,7.85-3.26,15.72-4.91,23.67h-17.71c1.07-4.5,2.11-8.94,3.18-13.38,1.36-5.65,2.75-11.29,4.11-16.94,2.02-8.36,4.03-16.73,6.05-25.09,1.84-7.62,3.68-15.24,5.52-22.86,1.23-5.11,2.44-10.23,3.72-15.33.09-.36.74-.82,1.13-.82,7.05-.05,14.11-.06,21.16.01.4,0,1.03.69,1.15,1.16,1.29,4.99,2.51,10,3.74,15.01,2.22,9.05,4.43,18.1,6.64,27.15,2.5,10.21,5,20.43,7.49,30.64,1.54,6.28,3.07,12.56,4.6,18.84.12.48.19.97.32,1.7ZM488.45,403.49c-2.74-13.35-5.46-26.59-8.19-39.89-2.68,13.33-5.35,26.58-8.03,39.89h16.22Z"/>
  <path class="cls-2" d="M393,372.83h-16.9c-.57-2.26-.99-4.52-1.72-6.67-1.67-4.91-5.94-7.21-11.58-6.39-4.6.67-7.31,4.2-7.77,9.22-.63,6.91,3.22,10.69,8.73,13.47,5.09,2.57,10.3,4.9,15.31,7.63,5.61,3.06,10.45,7.04,13.39,12.94,2.51,5.04,3,10.41,2.63,15.89-.68,10.1-5.53,17.41-14.77,21.83-2.91,1.39-5.9,1.99-9.01,2.62-3.3.68-6.55.61-9.78.45-9.87-.51-20.15-5-24.62-16.45-1.46-3.74-2.16-7.68-2.26-11.81.54-.02,1.02-.07,1.5-.07,4.9,0,9.81.03,14.71-.03,1.13-.01,1.46.36,1.63,1.45.6,3.83,1.7,7.45,4.6,10.32,4.53,4.49,16.19,4.25,18.97-2.99,2.38-6.2,1.6-13.77-5.19-18.25-3.78-2.49-7.87-4.54-11.91-6.6-4.89-2.5-9.78-4.96-13.92-8.65-6.31-5.63-8.13-12.91-7.66-21,.33-5.69,2.11-10.83,5.96-15.15,2.96-3.32,6.62-5.7,10.89-6.73,4-.96,8.18-2.01,12.21-1.79,7.52.42,14.88,1.95,20.34,8,3.99,4.42,7.01,13.23,6.21,18.75Z"/>
  <path class="cls-3" d="M435.19,442.23h-17.73v-79.66h-21.02v-14.71h59.71v14.66h-20.96v79.71Z"/>
  <path class="cls-1" d="M281.53,442.2v-94.35h17.66v79.63h33.69c-.61,5-1.19,9.81-1.78,14.72h-49.57Z"/>
  <path class="cls-3" d="M242.67,427.48h33.74c-.58,5-1.14,9.83-1.71,14.74h-49.52v-94.33h17.49v79.59Z"/>
  <path class="cls-4" d="M71.44,410.54c-4.63,0-9.26-.04-13.88.05-.68.01-1.58.47-1.99,1.01-3.21,4.24-6.66,8.36-9.36,12.91-1.94,3.28-4.34,3.9-7.73,3.8-6.06-.19-12.12-.06-18.18-.05-3.12,0-4.2-1.77-2.75-4.63.59-1.17,1.29-2.29,1.93-3.44,7.17-12.82,14.34-25.64,21.51-38.46,5.57-9.95,11.13-19.91,16.7-29.86,1.66-2.96,3.43-5.87,4.97-8.89,1.18-2.3,3.03-3.26,5.45-3.28,6.23-.04,12.45-.02,18.68-.01,2.15,0,3.71,1.2,4.67,2.89,9.1,16.01,18.14,32.06,27.19,48.1,6.09,10.79,12.17,21.58,18.23,32.39,1.64,2.93.46,5.26-2.8,5.3-7.1.09-14.21.14-21.31-.05-3.18-.08-5.56-1.66-7.14-4.73-5.46-10.56-11.13-21.01-16.72-31.51-3.29-6.19-6.56-12.39-9.85-18.58-1.23-2.32-2.91-2.48-4.16-.12-1.97,3.73-4.14,7.36-6.2,11.04-.91,1.62-.44,2.48,1.44,2.57,2.03.09,4.07.07,6.11.12,1.46.04,2.62.52,3.33,1.96,2.76,5.6,5.58,11.18,8.38,16.77.15.29.28.59.38.9.77,2.42-.16,3.78-2.69,3.79-4.74.03-9.48,0-14.22,0Z"/>
</svg>